<svg xmlns="http://www.w3.org/2000/svg" viewBox="0 0 512 512">
  <defs>
    <linearGradient id="g" x1="0" y1="0" x2="1" y2="1">
      <stop offset="0" stop-color="#2f7a4d"/>
      <stop offset="1" stop-color="#07432a"/>
    </linearGradient>
  </defs>
  <rect width="512" height="512" rx="120" fill="url(#g)"/>
  <g transform="translate(256 272) scale(15.5) translate(-12 -12)">
    <path fill="#f4f1e8" d="M11.4 21.5v-6.2c-1.9-.15-3.4-.9-4.5-2-1.3-1.35-2-3.15-2-5 0-.5.05-1 .15-1.45.85.9 1.85 1.4 2.85 1.55-.6-.9-.95-2-.95-3.15 0-1.5.6-2.95 1.55-4.05.55 1.35 1.5 2.4 2.6 3.05-.05-.3-.05-.6-.05-.9C11.55 1.7 12.35.4 13.5 0c-.35.95-.35 2 .05 2.95.55 1.3 1.6 2.25 2.8 2.7 1.75.65 3 1.85 3.6 3.35.3.75.45 1.55.45 2.35 0 1.85-.7 3.65-2 5-1.1 1.1-2.6 1.85-4.5 2v6.15h-2.5Z"/>
  </g>
</svg>
